<?xml version="1.0" encoding="UTF-8" standalone="no"?>
<!-- Created with Inkscape (http://www.inkscape.org/) -->

<svg
   width="35.727573mm"
   height="51.324562mm"
   viewBox="0 0 35.727573 51.324562"
   version="1.1"
   id="svg5"
   inkscape:version="1.1.2 (b8e25be833, 2022-02-05)"
   sodipodi:docname="nutlab_detailed.svg"
   xmlns:inkscape="http://www.inkscape.org/namespaces/inkscape"
   xmlns:sodipodi="http://sodipodi.sourceforge.net/DTD/sodipodi-0.dtd"
   xmlns="http://www.w3.org/2000/svg"
   xmlns:svg="http://www.w3.org/2000/svg">
  <sodipodi:namedview
     id="namedview7"
     pagecolor="#ffffff"
     bordercolor="#999999"
     borderopacity="1"
     inkscape:pageshadow="0"
     inkscape:pageopacity="0"
     inkscape:pagecheckerboard="0"
     inkscape:document-units="mm"
     showgrid="false"
     fit-margin-top="0"
     fit-margin-left="0"
     fit-margin-right="0"
     fit-margin-bottom="0"
     inkscape:zoom="0.66368547"
     inkscape:cx="412.0928"
     inkscape:cy="95.677852"
     inkscape:window-width="2560"
     inkscape:window-height="1361"
     inkscape:window-x="-9"
     inkscape:window-y="-9"
     inkscape:window-maximized="1"
     inkscape:current-layer="layer1" />
  <defs
     id="defs2" />
  <g
     inkscape:label="Layer 1"
     inkscape:groupmode="layer"
     id="layer1"
     transform="translate(82.530181,-133.00444)">
    <path
       style="fill:#ffffff;stroke-width:1"
       d="m -67.743979,183.85023 c -0.975293,-0.35361 -2.395366,-0.75965 -3.155717,-0.90229 -1.429034,-0.26809 -7.517366,-4.06329 -8.897165,-5.54611 -0.425352,-0.4571 -1.196717,-1.75582 -1.714145,-2.88603 -0.843817,-1.84314 -0.94801,-2.51568 -1.010945,-6.52535 -0.04562,-2.90673 0.09925,-5.0874 0.414167,-6.23431 0.266384,-0.97014 0.60951,-3.38175 0.762501,-5.35913 0.274715,-3.55064 0.302773,-3.63597 2.261765,-6.87916 1.09098,-1.80616 2.391427,-4.29067 2.889882,-5.52113 1.7737,-4.37845 3.830849,-6.96711 6.69514,-8.42497 0.970138,-0.49378 2.212631,-1.27335 2.761091,-1.73239 1.95976,-1.64021 5.55035,-0.75358 6.87274,1.69711 0.93377,1.7305 4.63414,5.94118 5.61314,6.38724 0.89586,0.40818 3.59733,4.12385 4.99684,6.87276 0.4212,0.82732 1.17605,3.04551 1.67744,4.9293 0.78854,2.96267 0.88158,3.85503 0.68912,6.60967 -0.4108,5.87989 -1.65861,12.1441 -2.89306,14.52378 -0.99732,1.92253 -4.98823,5.65008 -7.73144,7.22123 -1.53008,0.87634 -3.61484,1.49988 -7.39976,2.21326 -0.62286,0.11739 -1.78797,-0.0651 -2.831594,-0.44348 z m 5.560374,-2.07395 c 2.58852,-1.98207 3.64674,-3.74568 5.43663,-9.06064 3.30058,-9.80079 3.40332,-18.58866 0.32356,-27.67421 -3.32142,-9.79847 -6.31465,-12.77518 -9.93977,-9.88493 -0.754281,0.60138 -1.962321,1.39611 -2.684531,1.76606 -3.002599,1.53807 -4.881811,3.83453 -6.283394,7.6785 -0.450541,1.23565 -1.449505,3.21979 -2.219921,4.4092 -1.880606,2.90336 -2.351555,4.1196 -2.369773,6.11997 -0.0084,0.92786 -0.151189,2.32202 -0.317198,3.09813 -0.933018,4.36197 -1.045272,5.33016 -0.842697,7.26829 0.122314,1.17024 0.335385,1.94488 0.473492,1.72142 0.326388,-0.52811 0.690605,0.8176 0.69695,2.5751 0.0026,0.73383 0.242942,1.90416 0.533984,2.60072 0.624773,1.49529 0.629427,1.53308 0.188801,1.53308 -0.570474,0 -1.167252,-1.46633 -1.432217,-3.51906 l -0.251574,-1.94899 -0.04626,1.78282 c -0.03321,1.28011 0.211404,2.29987 0.867521,3.61652 1.021572,2.05003 3.256849,4.15309 3.817884,3.59205 0.511582,-0.51158 0.804823,-0.43472 1.600707,0.41956 l 0.715409,0.76791 -0.58028,-1.47725 c -0.605523,-1.54152 -0.329623,-2.51949 0.364851,-1.29328 0.219778,0.38806 1.074284,1.34698 1.898902,2.13095 0.824618,0.78396 1.499305,1.53803 1.499305,1.6757 0,0.13766 -0.396874,0.25029 -0.881944,0.25029 -1.236611,0 -1.100978,0.60139 0.200082,0.88715 1.394432,0.30627 2.606388,-0.63338 2.081622,-1.61391 -0.512127,-0.95692 -0.445138,-1.03712 0.866229,-1.03712 0.797184,0 1.592213,-0.32359 2.33907,-0.95203 1.10173,-0.92705 1.1247,-0.93088 0.87562,-0.14611 -0.23406,0.73749 -0.19135,0.77143 0.50308,0.39978 0.41738,-0.22337 0.8111,-0.59418 0.87493,-0.82402 1.35042,-4.86245 1.36281,-4.8893 2.18403,-4.73232 0.96276,0.18405 1.18783,-0.28815 1.18783,-2.49208 v -1.63352 l -1.07855,1.2214 c -0.59321,0.67177 -1.00188,0.98327 -0.90816,0.69223 0.0937,-0.29104 0.37272,-1.44198 0.61998,-2.55764 0.46509,-2.09856 0.81485,-2.50599 1.17558,-1.36944 0.11504,0.36247 0.50145,0.92354 0.85869,1.24684 0.61822,0.55949 0.65981,0.52348 0.86299,-0.74723 0.1174,-0.73426 0.14863,-1.65253 0.0694,-2.04059 -0.56524,-2.76802 -0.5603,-3.10053 0.0387,-2.60342 0.50991,0.42319 0.55464,0.39647 0.37087,-0.22156 -0.43503,-1.463 -0.98724,-5.19401 -0.79691,-5.38433 0.1092,-0.10921 0.19855,-0.0134 0.19855,0.21302 0,0.22636 0.14389,0.41157 0.31975,0.41157 0.17587,0 0.26258,-0.27781 0.1927,-0.61736 -0.0699,-0.33955 -0.38156,-1.94786 -0.69264,-3.57404 -0.46629,-2.43758 -2.46491,-9.30246 -3.55558,-12.21276 l -0.26442,-0.70556 0.80291,0.70556 c 1.54854,1.36077 2.08441,3.17118 3.55968,12.02609 1.63417,9.80874 1.63949,10.72453 0.0939,16.18277 -1.35785,4.79532 -3.42395,8.72967 -6.01258,11.44939 -1.21267,1.27408 -2.204853,2.43688 -2.204853,2.58399 0,0.14711 0.765463,0.26748 1.701043,0.26748 1.31335,0 1.9898,-0.22111 2.96801,-0.97014 z m -6.38009,-4.40972 c -0.02907,-0.33955 -0.290982,-0.61737 -0.582024,-0.61737 -0.415122,0 -0.526748,-0.47518 -0.517947,-2.20486 0.01021,-2.00669 0.05737,-2.14387 0.524679,-1.52621 0.636669,0.8415 0.98185,2.58399 0.78049,3.93994 -0.08379,0.56422 -0.176126,0.74804 -0.205198,0.4085 z m -8.301516,-1.73906 c -1.315587,-2.00784 -1.743044,-3.94146 -1.689914,-7.64443 0.02881,-2.00796 0.24449,-4.30984 0.47929,-5.11527 l 0.426909,-1.46444 0.21905,2.29306 c 0.120477,1.26118 0.412096,2.65024 0.648043,3.0868 0.286357,0.52984 0.303792,0.79375 0.05244,0.79375 -0.207107,0 -0.498541,0.32976 -0.647631,0.73278 -0.389451,1.05279 0.142026,5.35875 0.82426,6.67804 0.69324,1.34058 0.459864,1.8184 -0.312444,0.63971 z m 9.547039,0.22148 c -0.112564,-0.37801 -0.294819,-1.87791 -0.405011,-3.33312 -0.210015,-2.77349 -0.158112,-2.74714 1.172608,0.59535 0.708,1.77835 0.71034,1.85262 0.0828,2.62756 -0.620681,0.76651 -0.653715,0.77079 -0.850427,0.11021 z m -5.744689,-1.32618 c -1.455933,-1.49592 -1.793405,-2.20384 -2.049854,-4.29999 -0.180423,-1.47473 -0.151622,-1.61931 0.175684,-0.88195 1.592634,3.58793 1.689628,3.74528 1.712484,2.77813 0.0828,-3.50386 1.065434,-3.72644 1.074815,-0.24346 0.003,1.10304 0.160223,2.41272 0.349449,2.91042 0.452884,1.19118 0.07652,1.11273 -1.262578,-0.26315 z m -3.302389,-0.57264 c -0.620614,-1.15962 -0.387345,-1.65907 0.340365,-0.72874 0.379427,0.48507 0.693397,1.001 0.697711,1.14652 0.01567,0.52841 -0.68195,0.24765 -1.038076,-0.41778 z m 6.596447,-3.82727 c -1.04163,-2.13424 -1.31864,-3.10334 -1.282348,-4.48619 0.04355,-1.65938 0.06092,-1.69074 0.293184,-0.52917 0.47716,2.38631 1.788637,3.67964 1.788637,1.76389 0,-0.36516 0.160392,-0.76305 0.356427,-0.8842 0.232975,-0.14399 0.328484,1.00959 0.27575,3.33057 -0.04437,1.95297 -0.0857,3.54558 -0.09184,3.53913 -0.0061,-0.006 -0.609054,-1.23676 -1.339806,-2.73403 z m 5.930328,-2.01675 c 0.10687,-0.58208 0.28905,-1.37459 0.40484,-1.76112 0.18518,-0.61819 0.1407,-0.64484 -0.36953,-0.22139 -0.70691,0.58669 -0.72787,0.16816 -0.0509,-1.0161 0.70522,-1.23364 0.68455,-2.25178 -0.0401,-1.97372 -0.48557,0.18634 -0.53338,0.0234 -0.32532,-1.10878 0.33563,-1.82633 0.72218,-2.09465 1.43981,-0.99941 0.77331,1.18023 0.50364,4.48643 -0.54353,6.66349 -0.61107,1.27045 -0.68265,1.32837 -0.51531,0.41703 z m -2.94541,-1.41111 c 0.007,-0.58208 0.0862,-0.7775 0.17569,-0.43426 0.0894,0.34324 0.0836,0.81949 -0.0131,1.05833 -0.0966,0.23884 -0.16981,-0.042 -0.16262,-0.62407 z m -7.976838,-0.75605 c -0.295339,-0.76964 0.0968,-1.12737 0.513506,-0.46846 0.417174,0.65965 0.426055,1.04812 0.02397,1.04812 -0.173269,0 -0.415131,-0.26085 -0.537471,-0.57966 z m 6.279116,-3.16928 c -0.573046,-1.37149 -0.431004,-3.21141 0.36032,-4.66733 0.400853,-0.73751 0.449855,-0.53804 0.433315,1.76389 -0.01026,1.42749 0.112632,2.95262 0.273086,3.38919 0.501535,1.36457 -0.480444,0.91741 -1.066721,-0.48575 z m -11.887753,0.44037 c -0.384716,-1.00255 -0.282242,-2.14549 0.258688,-2.88525 0.761716,-1.04171 0.89525,-0.53174 0.416647,1.59119 -0.306053,1.35755 -0.504817,1.73842 -0.675335,1.29406 z m 7.093156,-2.33587 c -0.252158,-1.45945 0.302335,-4.04405 0.990045,-4.6148 0.404443,-0.33565 0.426867,-0.23453 0.13453,0.6067 -0.192946,0.55521 -0.476908,1.96199 -0.631027,3.12615 -0.259961,1.96367 -0.295636,2.02742 -0.493548,0.88195 z m -2.513378,0.2027 c -0.252022,-0.65676 0.405297,-3.02493 0.839612,-3.02493 0.184908,0 0.336196,0.79375 0.336196,1.76389 0,1.27251 -0.1369,1.76389 -0.491423,1.76389 -0.270283,0 -0.578256,-0.22628 -0.684385,-0.50285 z m 5.095631,-0.7181 c -0.446878,-1.08261 -0.269344,-2.6596 0.299411,-2.6596 0.554563,0 0.639402,0.47128 0.381038,2.11666 l -0.249274,1.5875 z m 4.546846,-1.23283 c 0,-0.18541 0.38728,-0.9078 0.86063,-1.60532 0.47335,-0.69752 1.05301,-2.12783 1.28813,-3.17848 0.46835,-2.09281 1.21809,-2.26586 0.9237,-0.21321 -0.26969,1.88032 -1.91356,5.33412 -2.53885,5.33412 -0.29349,0 -0.53361,-0.1517 -0.53361,-0.33711 z m -12.188076,-2.5733 c 0.141427,-1.21267 0.238125,-2.81228 0.214884,-3.55468 -0.02891,-0.92357 0.30721,-1.96062 1.064444,-3.28412 1.239086,-2.1657 1.807357,-2.35511 0.75286,-0.25094 -1.359335,2.71245 -1.309965,4.53384 0.06003,2.21462 1.091646,-1.84801 1.030304,-0.86604 -0.1079,1.72725 -0.630706,1.43701 -1.085133,3.07549 -1.085133,3.91255 0,1.09922 -0.13688,1.44018 -0.578163,1.44018 -0.501457,0 -0.544048,-0.29252 -0.321022,-2.20486 z m 9.977678,-1.88702 c -0.449754,-0.44975 -0.281497,-2.77211 0.331098,-4.56997 0.324581,-0.9526 0.644791,-1.56806 0.711579,-1.3677 0.209673,0.62903 -0.770364,6.20999 -1.042677,5.93767 z m -5.898091,-0.73799 c -0.003,-0.42512 0.153348,-0.87105 0.347376,-0.99096 0.449152,-0.27759 0.449152,0.53971 0,1.23472 -0.278019,0.4302 -0.342984,0.38462 -0.347376,-0.24376 z m 2.464042,-4.00363 c 0,-1.2181 0.236843,-2.67148 0.539164,-3.30857 0.519476,-1.09472 3.694169,-4.50643 3.694169,-3.96998 0,0.14445 -0.79375,1.29824 -1.763888,2.56398 -1.65585,2.16039 -1.763889,2.42843 -1.763889,4.37611 0,1.14112 -0.15875,2.17288 -0.352778,2.29279 -0.220597,0.13634 -0.352778,-0.59592 -0.352778,-1.95433 z m 8.142667,-0.57744 0.0288,-2.40712 0.54209,1.23473 c 0.77616,1.76788 0.784,3.29523 0.0177,3.45267 -0.54216,0.11139 -0.61386,-0.16638 -0.58859,-2.28028 z m -1.82774,-0.55424 c 0.13452,-2.43542 0.15752,-2.49435 0.47837,-1.22557 0.33726,1.33368 0.0971,3.78171 -0.37109,3.78321 -0.13673,4.2e-4 -0.185,-1.1505 -0.10728,-2.55764 z m -1.376038,-4.12073 c 0,-0.65267 0.996928,-1.96809 1.278308,-1.68671 0.23671,0.23672 -0.62732,2.36706 -0.96004,2.36706 -0.17505,0 -0.318268,-0.30616 -0.318268,-0.68035 z m -4.738277,-1.41826 c 1.019009,-1.87225 2.476672,-3.45558 2.843556,-3.0887 0.1236,0.1236 -0.232961,0.76223 -0.792359,1.41918 -0.559398,0.65695 -1.287515,1.69416 -1.61804,2.30491 -0.330524,0.61074 -0.776994,1.11045 -0.992156,1.11045 -0.215162,0 0.03639,-0.78563 0.558999,-1.74584 z m 7.756895,-5.03544 c -0.59709,-0.85245 -0.70007,-1.33388 -0.28459,-1.33038 0.14552,0.001 0.53501,0.47748 0.86554,1.05833 0.69505,1.22148 0.23496,1.43694 -0.58095,0.27205 z m 8.40464,39.92799 c 1.04825,-1.24577 1.16192,-1.74949 0.3948,-1.74949 -0.29105,0 -0.52917,-0.14448 -0.52917,-0.32107 0,-0.24096 5.20613,-5.07993 5.52758,-5.13773 0.0327,-0.006 0.17812,-0.48663 0.32309,-1.06831 0.2326,-0.93331 0.19855,-1.00406 -0.28979,-0.60192 -0.75847,0.62459 -1.04068,-0.18485 -0.40595,-1.1644 0.73095,-1.12807 2.25265,-7.92337 2.25077,-10.05102 -0.001,-1.08078 -0.24812,-2.40909 -0.55797,-2.99861 -0.30595,-0.58208 -0.69306,-1.88896 -0.86027,-2.90418 -0.28057,-1.70359 -1.34289,-4.50381 -1.60803,-4.23868 -0.0629,0.0629 0.10969,0.74324 0.38348,1.51192 0.55978,1.57167 0.69078,2.95568 0.23079,2.4383 -0.33846,-0.38068 -1.66257,-4.08777 -1.96858,-5.51142 -0.27296,-1.26985 -1.87107,-3.11399 -2.69855,-3.11399 -0.64813,0 -0.64597,0.0579 0.069,1.85208 1.10787,2.78029 1.69387,6.65745 1.71956,11.37708 0.0174,3.19266 0.1161,4.07323 0.40161,3.58202 0.20823,-0.35822 0.4632,-1.5845 0.56663,-2.72507 0.19971,-2.20243 0.56451,-2.46149 0.92538,-0.65714 0.27313,1.36562 -0.28741,3.72413 -1.56448,6.58277 -1.03261,2.31142 -2.31854,7.39543 -1.961,7.75297 0.29602,0.29602 1.61126,-2.71285 1.65048,-3.77582 0.0297,-0.80418 0.058,-0.81973 0.32148,-0.17639 0.58102,1.4188 -0.29553,3.94947 -1.88098,5.43053 -0.49717,0.46443 -1.16902,1.65505 -1.493,2.64583 -0.32397,0.99078 -0.88478,2.3904 -1.24624,3.11028 -0.36146,0.71987 -0.65719,1.47801 -0.65719,1.68475 0,0.6041 1.93034,-0.55367 2.95659,-1.77329 z m 3.26173,-9.03403 c 0.30184,-0.7224 0.63664,-2.47493 0.744,-3.89451 0.16497,-2.18128 0.27304,-2.51644 0.69777,-2.16396 0.90152,0.7482 -0.36657,6.36824 -1.61036,7.13694 -0.20911,0.12924 -0.13325,-0.35607 0.16859,-1.07847 z m 1.57795,-10.95089 c -0.0193,-0.81317 0.12359,-1.5766 0.31762,-1.69652 0.41117,-0.25411 0.41117,1.00918 0,2.29306 -0.24124,0.75325 -0.28758,0.66621 -0.31762,-0.59654 z m 1.43758,0.19966 c -0.0339,-0.50932 -0.15157,-1.46182 -0.2615,-2.11666 -0.16302,-0.97104 -0.12679,-1.07593 0.19645,-0.56874 0.21798,0.34204 0.33565,1.29454 0.2615,2.11667 -0.0742,0.82213 -0.16255,1.07806 -0.19645,0.56873 z m -2.69645,-4.29264 c -0.15101,-0.34792 -0.17558,-0.73156 -0.0546,-0.85255 0.35825,-0.35824 0.64703,0.14498 0.48215,0.84015 -0.14618,0.61629 -0.1652,0.61684 -0.42755,0.0124 z m -1.05163,-2.75652 c -0.31646,-0.88727 -0.88223,-3.65215 -0.89104,-4.35438 -0.0185,-1.47451 0.649,0.0752 0.98005,2.27542 0.32886,2.18568 0.28815,3.13647 -0.089,2.07896 z"
       id="path854" />
  </g>
</svg>
