<?xml version="1.0" encoding="UTF-8" standalone="no"?>
<!-- Created with Inkscape (http://www.inkscape.org/) -->

<svg
   width="121.24356mm"
   height="76.445816mm"
   viewBox="0 0 121.24356 76.445816"
   version="1.1"
   id="svg5"
   inkscape:version="1.1.2 (b8e25be833, 2022-02-05)"
   sodipodi:docname="openchrono2-isometric.svg"
   xmlns:inkscape="http://www.inkscape.org/namespaces/inkscape"
   xmlns:sodipodi="http://sodipodi.sourceforge.net/DTD/sodipodi-0.dtd"
   xmlns="http://www.w3.org/2000/svg"
   xmlns:svg="http://www.w3.org/2000/svg">
  <sodipodi:namedview
     id="namedview7"
     pagecolor="#ffffff"
     bordercolor="#999999"
     borderopacity="1"
     inkscape:pageshadow="0"
     inkscape:pageopacity="0"
     inkscape:pagecheckerboard="0"
     inkscape:document-units="mm"
     showgrid="true"
     inkscape:snap-nodes="true"
     lock-margins="true"
     fit-margin-top="0"
     fit-margin-left="0"
     fit-margin-right="0"
     fit-margin-bottom="0"
     showguides="false"
     inkscape:zoom="1.877186"
     inkscape:cx="182.98666"
     inkscape:cy="119.06119"
     inkscape:window-width="2560"
     inkscape:window-height="1361"
     inkscape:window-x="-9"
     inkscape:window-y="-9"
     inkscape:window-maximized="1"
     inkscape:current-layer="layer1" />
  <defs
     id="defs2" />
  <g
     inkscape:label="Layer 1"
     inkscape:groupmode="layer"
     id="layer1"
     transform="translate(4.330127,-72.054187)">
    <path
       style="fill:#317219;fill-opacity:1;stroke-width:4;stroke-linecap:square;paint-order:stroke fill markers"
       d="m 47.631397,147.5 69.282033,-40 -51.961524,-30 -69.282033,40 z"
       id="path859"
       sodipodi:nodetypes="ccccc" />
    <path
       style="fill:#1540b6;fill-opacity:1;stroke-width:4;stroke-linecap:square;paint-order:stroke fill markers"
       d="m 75.344208,101.5 -4.330125,2.5 v 4 l 3.4641,2 4.330129,-2.5 v -4 z"
       id="path3827"
       sodipodi:nodetypes="ccccccc" />
    <path
       style="fill:#235212;fill-opacity:1;stroke-width:4;stroke-linecap:square;paint-order:stroke fill markers"
       d="m -4.3301269,117.5 v 1 l 51.9615239,30 69.282033,-40 v -1 l -69.282033,40 z"
       id="path1149"
       sodipodi:nodetypes="ccccccc" />
    <path
       style="fill:#a1a1a1;fill-opacity:1;stroke-width:4;stroke-linecap:square;paint-order:stroke fill markers"
       d="M 64.951906,87.499999 V 74.5 l 0.866023,0.499999 V 88 Z"
       id="path1736"
       sodipodi:nodetypes="ccccc" />
    <path
       style="fill:#a1a1a1;fill-opacity:1;stroke-width:4;stroke-linecap:square;paint-order:stroke fill markers"
       d="M 67.549984,89 V 76.000001 L 68.416007,76.5 v 13.000001 z"
       id="path2478"
       sodipodi:nodetypes="ccccc" />
    <path
       style="fill:#484848;fill-opacity:1;stroke-width:4;stroke-linecap:square;paint-order:stroke fill markers"
       d="m 64.085877,73.000001 -4.330125,2.499998 v 4 l 3.4641,2.000002 L 67.549981,79 v -4 z"
       id="path2513"
       sodipodi:nodetypes="ccccccc" />
    <path
       style="fill:#7e7e7e;fill-opacity:1;stroke-width:4;stroke-linecap:square;paint-order:stroke fill markers"
       d="m 68.416005,76.499999 -0.866023,0.499999 v -1 z"
       id="path3304" />
    <path
       style="fill:#a1a1a1;fill-opacity:1;stroke-width:4;stroke-linecap:square;paint-order:stroke fill markers"
       d="M 95.262794,105 V 92 l 0.866023,0.499999 V 105.5 Z"
       id="path3815"
       sodipodi:nodetypes="ccccc" />
    <path
       style="fill:#a1a1a1;fill-opacity:1;stroke-width:4;stroke-linecap:square;paint-order:stroke fill markers"
       d="M 97.860872,106.5 V 93.500001 L 98.726895,94 v 13 z"
       id="path3817"
       sodipodi:nodetypes="ccccc" />
    <path
       style="fill:#484848;fill-opacity:1;stroke-width:4;stroke-linecap:square;paint-order:stroke fill markers"
       d="m 94.396765,90.500001 -4.330125,2.499998 v 4 l 3.4641,2.000002 L 97.860869,96.5 v -4 z"
       id="path3819"
       sodipodi:nodetypes="ccccccc" />
    <path
       style="fill:#7e7e7e;fill-opacity:1;stroke-width:4;stroke-linecap:square;paint-order:stroke fill markers"
       d="m 98.726893,93.999999 -0.866023,0.499999 v -1 z"
       id="path3821" />
    <path
       style="fill:#a1a1a1;fill-opacity:1;stroke-width:4;stroke-linecap:square;paint-order:stroke fill markers"
       d="m 69.282034,120 v -13 l 0.866023,0.5 v 13 z"
       id="path3823"
       sodipodi:nodetypes="ccccc" />
    <path
       style="fill:#a1a1a1;fill-opacity:1;stroke-width:4;stroke-linecap:square;paint-order:stroke fill markers"
       d="m 71.880112,121.5 v -13 l 0.866023,0.5 v 13 z"
       id="path3825"
       sodipodi:nodetypes="ccccc" />
    <path
       style="fill:#7e7e7e;fill-opacity:1;stroke-width:4;stroke-linecap:square;paint-order:stroke fill markers"
       d="m 69.28203,107 1.732053,-1 0.866026,0.5 -1.732053,1"
       id="path3944" />
    <path
       style="fill:#7e7e7e;fill-opacity:1;stroke-width:4;stroke-linecap:square;paint-order:stroke fill markers"
       d="m 71.880109,108.5 1.73205,-1 0.866026,0.5 -1.732053,1"
       id="path3946" />
    <path
       style="fill:#1540b6;fill-opacity:1;stroke-width:4;stroke-linecap:square;paint-order:stroke fill markers"
       d="m 45.033319,84 -4.330125,2.5 v 4 l 3.4641,2 4.330129,-2.5 v -4 z"
       id="path4604"
       sodipodi:nodetypes="ccccccc" />
    <path
       style="fill:#a1a1a1;fill-opacity:1;stroke-width:4;stroke-linecap:square;paint-order:stroke fill markers"
       d="m 38.971145,102.5 v -13 l 0.866023,0.5 v 13 z"
       id="path4606"
       sodipodi:nodetypes="ccccc" />
    <path
       style="fill:#a1a1a1;fill-opacity:1;stroke-width:4;stroke-linecap:square;paint-order:stroke fill markers"
       d="M 41.569223,104 V 91 l 0.866023,0.5 v 13 z"
       id="path4608"
       sodipodi:nodetypes="ccccc" />
    <path
       style="fill:#7e7e7e;fill-opacity:1;stroke-width:4;stroke-linecap:square;paint-order:stroke fill markers"
       d="m 38.971141,89.5 1.732053,-1 0.866026,0.5 -1.732053,1"
       id="path4610" />
    <path
       style="fill:#7e7e7e;fill-opacity:1;stroke-width:4;stroke-linecap:square;paint-order:stroke fill markers"
       d="m 41.56922,91 1.73205,-1 0.866026,0.5 -1.732053,1"
       id="path4612" />
    <path
       style="fill:#0ab3dc;fill-opacity:1;stroke-width:4;stroke-linecap:square;paint-order:stroke fill markers"
       d="M 4.330127,115.5 17.320508,123 42.435245,108.5 29.444864,101 Z"
       id="path4669"
       sodipodi:nodetypes="ccccc" />
    <path
       style="fill:#088eaf;fill-opacity:1;stroke-width:4;stroke-linecap:square;paint-order:stroke fill markers"
       d="m 4.330127,115.5 v 1 l 12.990381,7.5 25.114737,-14.5 v -1 L 17.320508,123 Z"
       id="path13040"
       sodipodi:nodetypes="ccccccc" />
    <path
       style="fill:#747474;fill-opacity:1;stroke-width:4;stroke-linecap:square;paint-order:stroke fill markers"
       d="m 8.6602541,118 3.4641009,2 2.598077,-1.5 v -1 -1 l -3.464102,-2 -2.5980759,1.5 z"
       id="path17798"
       sodipodi:nodetypes="cccccccc" />
    <path
       style="fill:#4d4d4d;fill-opacity:1;stroke-width:4;stroke-linecap:square;paint-order:stroke fill markers"
       d="m 14.722432,122.5 v 1 l 1.732051,1 0.866025,-0.5 z"
       id="path18805" />
    <path
       style="fill:#4d4d4d;fill-opacity:1;stroke-width:4;stroke-linecap:square;paint-order:stroke fill markers"
       d="m 5.1961523,117 v 1 l 1.732051,1 0.866025,-0.5 z"
       id="path18887" />
    <path
       style="fill:#8c860e;fill-opacity:1;stroke-width:4;stroke-linecap:square;paint-order:stroke fill markers"
       d="m 6.0621777,118.5 v 1 l 0.8660254,0.5 0.8660255,-0.5 v -1 L 6.9282031,119 Z"
       id="path18922" />
    <path
       style="fill:#8c860e;fill-opacity:1;stroke-width:4;stroke-linecap:square;paint-order:stroke fill markers"
       d="m 15.588457,124 v 1 l 0.866026,0.5 0.866025,-0.5 v -1 l -0.866025,0.5 z"
       id="path19499" />
    <path
       style="fill:#8c860e;fill-opacity:1;stroke-width:4;stroke-linecap:square;paint-order:stroke fill markers"
       d="m 17.320507,124 0.866026,0.5 0.866025,-0.5 v -1 l -0.866025,0.5 z"
       id="path19501"
       sodipodi:nodetypes="cccccc" />
    <path
       style="fill:#8c860e;fill-opacity:1;stroke-width:4;stroke-linecap:square;paint-order:stroke fill markers"
       d="m 19.052558,123 0.866026,0.5 0.866025,-0.5 v -1 l -0.866025,0.5 z"
       id="path19754"
       sodipodi:nodetypes="cccccc" />
    <path
       style="fill:#8c860e;fill-opacity:1;stroke-width:4;stroke-linecap:square;paint-order:stroke fill markers"
       d="m 20.784609,122 0.866026,0.5 0.866025,-0.5 v -1 l -0.866025,0.5 z"
       id="path19756"
       sodipodi:nodetypes="cccccc" />
    <path
       style="fill:#8c860e;fill-opacity:1;stroke-width:4;stroke-linecap:square;paint-order:stroke fill markers"
       d="m 22.51666,121 0.866026,0.5 0.866025,-0.5 v -1 l -0.866025,0.5 z"
       id="path19758"
       sodipodi:nodetypes="cccccc" />
    <path
       style="fill:#8c860e;fill-opacity:1;stroke-width:4;stroke-linecap:square;paint-order:stroke fill markers"
       d="m 24.248711,120 0.866026,0.5 0.866025,-0.5 v -1 l -0.866025,0.5 z"
       id="path19760"
       sodipodi:nodetypes="cccccc" />
    <path
       style="fill:#8c860e;fill-opacity:1;stroke-width:4;stroke-linecap:square;paint-order:stroke fill markers"
       d="m 25.980762,119 0.866026,0.5 0.866025,-0.5 v -1 l -0.866025,0.5 z"
       id="path19762"
       sodipodi:nodetypes="cccccc" />
    <path
       style="fill:#8c860e;fill-opacity:1;stroke-width:4;stroke-linecap:square;paint-order:stroke fill markers"
       d="m 27.712813,118 0.866026,0.5 0.866025,-0.5 v -1 l -0.866025,0.5 z"
       id="path19764"
       sodipodi:nodetypes="cccccc" />
    <path
       style="fill:#8c860e;fill-opacity:1;stroke-width:4;stroke-linecap:square;paint-order:stroke fill markers"
       d="m 29.444864,117 0.866026,0.5 0.866025,-0.5 v -1 l -0.866025,0.5 z"
       id="path19766"
       sodipodi:nodetypes="cccccc" />
    <path
       style="fill:#8c860e;fill-opacity:1;stroke-width:4;stroke-linecap:square;paint-order:stroke fill markers"
       d="m 31.176914,116 0.866026,0.5 0.866025,-0.5 v -1 l -0.866025,0.5 z"
       id="path19768"
       sodipodi:nodetypes="cccccc" />
    <path
       style="fill:#8c860e;fill-opacity:1;stroke-width:4;stroke-linecap:square;paint-order:stroke fill markers"
       d="m 32.908965,115 0.866026,0.5 0.866025,-0.5 v -1 l -0.866025,0.5 z"
       id="path19770"
       sodipodi:nodetypes="cccccc" />
    <path
       style="fill:#8c860e;fill-opacity:1;stroke-width:4;stroke-linecap:square;paint-order:stroke fill markers"
       d="m 34.641016,114 0.866026,0.5 0.866025,-0.5 v -1 l -0.866025,0.5 z"
       id="path19772"
       sodipodi:nodetypes="cccccc" />
    <path
       style="fill:#8c860e;fill-opacity:1;stroke-width:4;stroke-linecap:square;paint-order:stroke fill markers"
       d="m 36.373067,113 0.866026,0.5 0.866025,-0.5 v -1 l -0.866025,0.5 z"
       id="path19774"
       sodipodi:nodetypes="cccccc" />
    <path
       style="fill:#8c860e;fill-opacity:1;stroke-width:4;stroke-linecap:square;paint-order:stroke fill markers"
       d="m 38.105117,112 0.866026,0.5 0.866025,-0.5 v -1 l -0.866025,0.5 z"
       id="path19776"
       sodipodi:nodetypes="cccccc" />
    <path
       style="fill:#8c860e;fill-opacity:1;stroke-width:4;stroke-linecap:square;paint-order:stroke fill markers"
       d="m 39.837168,111 0.866026,0.5 0.866025,-0.5 v -1 l -0.866025,0.5 z"
       id="path19778"
       sodipodi:nodetypes="cccccc" />
    <path
       style="fill:#3e3c06;fill-opacity:1;stroke-width:4;stroke-linecap:square;paint-order:stroke fill markers"
       d="m 18.834304,109.87399 6.280432,-3.62601 6.280433,3.62601 -6.280433,3.62601 z"
       id="path20152" />
    <path
       style="fill:#333105;fill-opacity:1;stroke-width:4;stroke-linecap:square;paint-order:stroke fill markers"
       d="m 18.834304,109.87399 v 0.81156 l 6.280432,3.62601 6.280433,-3.62601 v -0.81156 L 25.114736,113.5 Z"
       id="path20385"
       sodipodi:nodetypes="ccccccc" />
    <path
       style="fill:#283b8d;fill-opacity:1;stroke-width:4;stroke-linecap:square;paint-order:stroke fill markers"
       d="M 30.310889,127.5 51.961523,115 73.612157,127.5 51.961523,140 Z"
       id="path20977" />
    <path
       style="fill:#1d2b67;fill-opacity:1;stroke-width:4;stroke-linecap:square;paint-order:stroke fill markers"
       d="m 30.310889,127.5 v 1 L 51.961523,141 73.612157,128.5 v -1 L 51.961523,140 Z"
       id="path22167" />
    <path
       style="fill:#142049;fill-opacity:1;stroke-width:4;stroke-linecap:square;paint-order:stroke fill markers"
       d="m 32.908965,129 v -1 l 21.650634,-12.5 16.454482,9.5 v 1 l -20.784608,13 z"
       id="path22334" />
    <path
       style="fill:#090e20;fill-opacity:1;stroke-width:4;stroke-linecap:square;paint-order:stroke fill markers"
       d="m 32.908965,128 v 1 l 17.320508,10 20.784608,-13 v -1 l -20.784608,13 z"
       id="path22699" />
    <path
       id="path22958"
       style="fill:#d3d300;fill-opacity:1;stroke-width:4;stroke-linecap:square;paint-order:stroke fill markers"
       d="M 45.033214,125.99983 42.435439,127.5 v 0.99994 l 2.597775,1.50016 h 1.732192 l 2.598291,-1.50016 V 127.5 l -2.598291,-1.50017 z m 0.866095,0.50023 2.598293,1.50016 -2.598293,1.49966 -2.598291,-1.49966 z" />
    <path
       style="fill:#d3d300;fill-opacity:1;stroke-width:4;stroke-linecap:square;paint-order:stroke fill markers"
       d="m 51.961524,128 -2.598076,-1.5 1.732052,-1 1.73205,1 -0.866026,0.5 0.866026,0.5 z"
       id="path23420" />
    <path
       id="path23422"
       style="fill:#d3d300;fill-opacity:1;stroke-width:4;stroke-linecap:square;paint-order:stroke fill markers"
       d="m 52.827569,123.50024 -1.732193,0.99994 2.59829,1.49965 1.732193,-0.99994 -0.451136,-0.26045 -0.859895,0.4961 -0.421162,-0.23565 0.866095,-0.49971 z m 0.05581,0.47749 0.865579,0.50023 -0.865579,0.49971 -0.866098,-0.49971 z" />
    <path
       style="fill:#d3d300;fill-opacity:1;stroke-width:4;stroke-linecap:square;paint-order:stroke fill markers"
       d="m 56.291652,124.5 -1.732052,-1 2.598076,-1.5 1.732052,1 -0.866026,0.5 -0.866026,-0.5 -0.866024,0.5 0.866024,0.5 z"
       id="path23974" />
    <circle
       style="fill:#dbdbdb;fill-opacity:1;stroke-width:4;stroke-linecap:square;paint-order:stroke fill markers"
       id="path25911"
       cx="43.908039"
       cy="75.22406"
       r="3.169873" />
    <path
       style="fill:#d30000;fill-opacity:1;stroke-width:4;stroke-linecap:square;paint-order:stroke fill markers"
       d="m 47.631397,77.5 4.330126,6.499998 V 75 Z"
       id="path26026" />
    <path
       style="fill:#d30000;fill-opacity:1;stroke-width:4;stroke-linecap:square;paint-order:stroke fill markers"
       d="M 51.961523,77.999999 105.6551,109 v 3 L 51.961523,80.999998 Z"
       id="path26094"
       sodipodi:nodetypes="ccccc" />
    <circle
       style="fill:#f3f3f3;fill-opacity:1;stroke-width:4;stroke-linecap:square;paint-order:stroke fill markers"
       id="path28421"
       cx="42.945522"
       cy="73.786034"
       r="1.1830127" />
  </g>
</svg>
